STARTFONT 2.1
COMMENT "Generated by fontforge, http://fontforge.sourceforge.net"
FONT -xos4-TerminusPowerline-Medium-R-Normal--12-120-72-72-C-60-ISO10646-1
SIZE 12 72 72
FONTBOUNDINGBOX 6 12 0 -2
STARTPROPERTIES 24
FAMILY_NAME "TerminusPowerline"
FOUNDRY "xos4"
SETWIDTH_NAME "Normal"
ADD_STYLE_NAME ""
COPYRIGHT "Copyright (C) 2011 Dimitar Toshkov Zhekov"
NOTICE "Licensed under the SIL Open Font License, Version 1.1"
WEIGHT_NAME "Medium"
SLANT "R"
PIXEL_SIZE 12
POINT_SIZE 120
RESOLUTION_X 72
RESOLUTION_Y 72
SPACING "C"
AVERAGE_WIDTH 60
CHARSET_REGISTRY "ISO10646"
CHARSET_ENCODING "1"
MIN_SPACE 6
WEIGHT 10
RESOLUTION 99
X_HEIGHT 10
QUAD_WIDTH 6
FONT_ASCENT 10
FONT_DESCENT 2
_GBDFED_INFO "Edited with gbdfed 1.6."
ENDPROPERTIES
CHARS 256
STARTCHAR space
ENCODING 32
SWIDTH 500 0
DWIDTH 6 0
BBX 6 12 0 -2
BITMAP
00
00
00
00
00
00
00
00
00
00
00
00
ENDCHAR
STARTCHAR exclam
ENCODING 33
SWIDTH 500 0
DWIDTH 6 0
BBX 6 12 0 -2
BITMAP
00
00
20
20
20
20
20
00
20
20
00
00
ENDCHAR
STARTCHAR quotedbl
ENCODING 34
SWIDTH 500 0
DWIDTH 6 0
BBX 6 12 0 -2
BITMAP
00
50
50
50
00
00
00
00
00
00
00
00
ENDCHAR
STARTCHAR numbersign
ENCODING 35
SWIDTH 500 0
DWIDTH 6 0
BBX 6 12 0 -2
BITMAP
00
00
50
50
F8
50
50
F8
50
50
00
00
ENDCHAR
STARTCHAR dollar
ENCODING 36
SWIDTH 500 0
DWIDTH 6 0
BBX 6 12 0 -2
BITMAP
00
00
20
70
A8
A0
70
28
A8
70
20
00
ENDCHAR
STARTCHAR percent
ENCODING 37
SWIDTH 500 0
DWIDTH 6 0
BBX 6 12 0 -2
BITMAP
00
00
48
A8
50
10
20
28
54
48
00
00
ENDCHAR
STARTCHAR ampersand
ENCODING 38
SWIDTH 500 0
DWIDTH 6 0
BBX 6 12 0 -2
BITMAP
00
00
20
50
50
20
68
90
90
68
00
00
ENDCHAR
STARTCHAR quotesingle
ENCODING 39
SWIDTH 500 0
DWIDTH 6 0
BBX 6 12 0 -2
BITMAP
00
20
20
20
00
00
00
00
00
00
00
00
ENDCHAR
STARTCHAR parenleft
ENCODING 40
SWIDTH 500 0
DWIDTH 6 0
BBX 6 12 0 -2
BITMAP
00
00
10
20
40
40
40
40
20
10
00
00
ENDCHAR
STARTCHAR parenright
ENCODING 41
SWIDTH 500 0
DWIDTH 6 0
BBX 6 12 0 -2
BITMAP
00
00
40
20
10
10
10
10
20
40
00
00
ENDCHAR
STARTCHAR asterisk
ENCODING 42
SWIDTH 500 0
DWIDTH 6 0
BBX 6 12 0 -2
BITMAP
00
00
00
00
50
20
F8
20
50
00
00
00
ENDCHAR
STARTCHAR plus
ENCODING 43
SWIDTH 500 0
DWIDTH 6 0
BBX 6 12 0 -2
BITMAP
00
00
00
00
20
20
F8
20
20
00
00
00
ENDCHAR
STARTCHAR comma
ENCODING 44
SWIDTH 500 0
DWIDTH 6 0
BBX 6 12 0 -2
BITMAP
00
00
00
00
00
00
00
00
20
20
40
00
ENDCHAR
STARTCHAR hyphen
ENCODING 45
SWIDTH 500 0
DWIDTH 6 0
BBX 6 12 0 -2
BITMAP
00
00
00
00
00
00
F8
00
00
00
00
00
ENDCHAR
STARTCHAR period
ENCODING 46
SWIDTH 500 0
DWIDTH 6 0
BBX 6 12 0 -2
BITMAP
00
00
00
00
00
00
00
00
20
20
00
00
ENDCHAR
STARTCHAR slash
ENCODING 47
SWIDTH 500 0
DWIDTH 6 0
BBX 6 12 0 -2
BITMAP
00
00
08
08
10
10
20
20
40
40
00
00
ENDCHAR
STARTCHAR zero
ENCODING 48
SWIDTH 500 0
DWIDTH 6 0
BBX 6 12 0 -2
BITMAP
00
00
70
88
98
A8
C8
88
88
70
00
00
ENDCHAR
STARTCHAR one
ENCODING 49
SWIDTH 500 0
DWIDTH 6 0
BBX 6 12 0 -2
BITMAP
00
00
20
60
20
20
20
20
20
70
00
00
ENDCHAR
STARTCHAR two
ENCODING 50
SWIDTH 500 0
DWIDTH 6 0
BBX 6 12 0 -2
BITMAP
00
00
70
88
88
10
20
40
80
F8
00
00
ENDCHAR
STARTCHAR three
ENCODING 51
SWIDTH 500 0
DWIDTH 6 0
BBX 6 12 0 -2
BITMAP
00
00
70
88
08
30
08
08
88
70
00
00
ENDCHAR
STARTCHAR four
ENCODING 52
SWIDTH 500 0
DWIDTH 6 0
BBX 6 12 0 -2
BITMAP
00
00
08
18
28
48
88
F8
08
08
00
00
ENDCHAR
STARTCHAR five
ENCODING 53
SWIDTH 500 0
DWIDTH 6 0
BBX 6 12 0 -2
BITMAP
00
00
F8
80
80
F0
08
08
88
70
00
00
ENDCHAR
STARTCHAR six
ENCODING 54
SWIDTH 500 0
DWIDTH 6 0
BBX 6 12 0 -2
BITMAP
00
00
70
80
80
F0
88
88
88
70
00
00
ENDCHAR
STARTCHAR seven
ENCODING 55
SWIDTH 500 0
DWIDTH 6 0
BBX 6 12 0 -2
BITMAP
00
00
F8
08
08
10
10
20
20
20
00
00
ENDCHAR
STARTCHAR eight
ENCODING 56
SWIDTH 500 0
DWIDTH 6 0
BBX 6 12 0 -2
BITMAP
00
00
70
88
88
70
88
88
88
70
00
00
ENDCHAR
STARTCHAR nine
ENCODING 57
SWIDTH 500 0
DWIDTH 6 0
BBX 6 12 0 -2
BITMAP
00
00
70
88
88
88
78
08
08
70
00
00
ENDCHAR
STARTCHAR colon
ENCODING 58
SWIDTH 500 0
DWIDTH 6 0
BBX 6 12 0 -2
BITMAP
00
00
00
00
20
20
00
00
20
20
00
00
ENDCHAR
STARTCHAR semicolon
ENCODING 59
SWIDTH 500 0
DWIDTH 6 0
BBX 6 12 0 -2
BITMAP
00
00
00
00
20
20
00
00
20
20
40
00
ENDCHAR
STARTCHAR less
ENCODING 60
SWIDTH 500 0
DWIDTH 6 0
BBX 6 12 0 -2
BITMAP
00
00
00
08
10
20
40
20
10
08
00
00
ENDCHAR
STARTCHAR equal
ENCODING 61
SWIDTH 500 0
DWIDTH 6 0
BBX 6 12 0 -2
BITMAP
00
00
00
00
F8
00
00
F8
00
00
00
00
ENDCHAR
STARTCHAR greater
ENCODING 62
SWIDTH 500 0
DWIDTH 6 0
BBX 6 12 0 -2
BITMAP
00
00
00
40
20
10
08
10
20
40
00
00
ENDCHAR
STARTCHAR question
ENCODING 63
SWIDTH 500 0
DWIDTH 6 0
BBX 6 12 0 -2
BITMAP
00
00
70
88
88
10
20
00
20
20
00
00
ENDCHAR
STARTCHAR at
ENCODING 64
SWIDTH 500 0
DWIDTH 6 0
BBX 6 12 0 -2
BITMAP
00
00
70
88
98
A8
A8
98
80
78
00
00
ENDCHAR
STARTCHAR A
ENCODING 65
SWIDTH 500 0
DWIDTH 6 0
BBX 6 12 0 -2
BITMAP
00
00
70
88
88
88
F8
88
88
88
00
00
ENDCHAR
STARTCHAR B
ENCODING 66
SWIDTH 500 0
DWIDTH 6 0
BBX 6 12 0 -2
BITMAP
00
00
F0
88
88
F0
88
88
88
F0
00
00
ENDCHAR
STARTCHAR C
ENCODING 67
SWIDTH 500 0
DWIDTH 6 0
BBX 6 12 0 -2
BITMAP
00
00
70
88
80
80
80
80
88
70
00
00
ENDCHAR
STARTCHAR D
ENCODING 68
SWIDTH 500 0
DWIDTH 6 0
BBX 6 12 0 -2
BITMAP
00
00
E0
90
88
88
88
88
90
E0
00
00
ENDCHAR
STARTCHAR E
ENCODING 69
SWIDTH 500 0
DWIDTH 6 0
BBX 6 12 0 -2
BITMAP
00
00
F8
80
80
F0
80
80
80
F8
00
00
ENDCHAR
STARTCHAR F
ENCODING 70
SWIDTH 500 0
DWIDTH 6 0
BBX 6 12 0 -2
BITMAP
00
00
F8
80
80
F0
80
80
80
80
00
00
ENDCHAR
STARTCHAR G
ENCODING 71
SWIDTH 500 0
DWIDTH 6 0
BBX 6 12 0 -2
BITMAP
00
00
70
88
80
80
B8
88
88
70
00
00
ENDCHAR
STARTCHAR H
ENCODING 72
SWIDTH 500 0
DWIDTH 6 0
BBX 6 12 0 -2
BITMAP
00
00
88
88
88
F8
88
88
88
88
00
00
ENDCHAR
STARTCHAR I
ENCODING 73
SWIDTH 500 0
DWIDTH 6 0
BBX 6 12 0 -2
BITMAP
00
00
70
20
20
20
20
20
20
70
00
00
ENDCHAR
STARTCHAR J
ENCODING 74
SWIDTH 500 0
DWIDTH 6 0
BBX 6 12 0 -2
BITMAP
00
00
38
10
10
10
10
90
90
60
00
00
ENDCHAR
STARTCHAR K
ENCODING 75
SWIDTH 500 0
DWIDTH 6 0
BBX 6 12 0 -2
BITMAP
00
00
88
90
A0
C0
C0
A0
90
88
00
00
ENDCHAR
STARTCHAR L
ENCODING 76
SWIDTH 500 0
DWIDTH 6 0
BBX 6 12 0 -2
BITMAP
00
00
80
80
80
80
80
80
80
F8
00
00
ENDCHAR
STARTCHAR M
ENCODING 77
SWIDTH 500 0
DWIDTH 6 0
BBX 6 12 0 -2
BITMAP
00
00
88
D8
A8
A8
88
88
88
88
00
00
ENDCHAR
STARTCHAR N
ENCODING 78
SWIDTH 500 0
DWIDTH 6 0
BBX 6 12 0 -2
BITMAP
00
00
88
88
C8
A8
98
88
88
88
00
00
ENDCHAR
STARTCHAR O
ENCODING 79
SWIDTH 500 0
DWIDTH 6 0
BBX 6 12 0 -2
BITMAP
00
00
70
88
88
88
88
88
88
70
00
00
ENDCHAR
STARTCHAR P
ENCODING 80
SWIDTH 500 0
DWIDTH 6 0
BBX 6 12 0 -2
BITMAP
00
00
F0
88
88
88
F0
80
80
80
00
00
ENDCHAR
STARTCHAR Q
ENCODING 81
SWIDTH 500 0
DWIDTH 6 0
BBX 6 12 0 -2
BITMAP
00
00
70
88
88
88
88
88
A8
70
08
00
ENDCHAR
STARTCHAR R
ENCODING 82
SWIDTH 500 0
DWIDTH 6 0
BBX 6 12 0 -2
BITMAP
00
00
F0
88
88
88
F0
A0
90
88
00
00
ENDCHAR
STARTCHAR S
ENCODING 83
SWIDTH 500 0
DWIDTH 6 0
BBX 6 12 0 -2
BITMAP
00
00
70
88
80
70
08
08
88
70
00
00
ENDCHAR
STARTCHAR T
ENCODING 84
SWIDTH 500 0
DWIDTH 6 0
BBX 6 12 0 -2
BITMAP
00
00
F8
20
20
20
20
20
20
20
00
00
ENDCHAR
STARTCHAR U
ENCODING 85
SWIDTH 500 0
DWIDTH 6 0
BBX 6 12 0 -2
BITMAP
00
00
88
88
88
88
88
88
88
70
00
00
ENDCHAR
STARTCHAR V
ENCODING 86
SWIDTH 500 0
DWIDTH 6 0
BBX 6 12 0 -2
BITMAP
00
00
88
88
88
50
50
50
20
20
00
00
ENDCHAR
STARTCHAR W
ENCODING 87
SWIDTH 500 0
DWIDTH 6 0
BBX 6 12 0 -2
BITMAP
00
00
88
88
88
88
A8
A8
D8
88
00
00
ENDCHAR
STARTCHAR X
ENCODING 88
SWIDTH 500 0
DWIDTH 6 0
BBX 6 12 0 -2
BITMAP
00
00
88
88
50
20
20
50
88
88
00
00
ENDCHAR
STARTCHAR Y
ENCODING 89
SWIDTH 500 0
DWIDTH 6 0
BBX 6 12 0 -2
BITMAP
00
00
88
88
50
50
20
20
20
20
00
00
ENDCHAR
STARTCHAR Z
ENCODING 90
SWIDTH 500 0
DWIDTH 6 0
BBX 6 12 0 -2
BITMAP
00
00
F8
08
10
20
40
80
80
F8
00
00
ENDCHAR
STARTCHAR bracketleft
ENCODING 91
SWIDTH 500 0
DWIDTH 6 0
BBX 6 12 0 -2
BITMAP
00
00
70
40
40
40
40
40
40
70
00
00
ENDCHAR
STARTCHAR backslash
ENCODING 92
SWIDTH 500 0
DWIDTH 6 0
BBX 6 12 0 -2
BITMAP
00
00
40
40
20
20
10
10
08
08
00
00
ENDCHAR
STARTCHAR bracketright
ENCODING 93
SWIDTH 500 0
DWIDTH 6 0
BBX 6 12 0 -2
BITMAP
00
00
70
10
10
10
10
10
10
70
00
00
ENDCHAR
STARTCHAR asciicircum
ENCODING 94
SWIDTH 500 0
DWIDTH 6 0
BBX 6 12 0 -2
BITMAP
00
20
50
88
00
00
00
00
00
00
00
00
ENDCHAR
STARTCHAR underscore
ENCODING 95
SWIDTH 500 0
DWIDTH 6 0
BBX 6 12 0 -2
BITMAP
00
00
00
00
00
00
00
00
00
00
F8
00
ENDCHAR
STARTCHAR grave
ENCODING 96
SWIDTH 500 0
DWIDTH 6 0
BBX 6 12 0 -2
BITMAP
40
20
00
00
00
00
00
00
00
00
00
00
ENDCHAR
STARTCHAR a
ENCODING 97
SWIDTH 500 0
DWIDTH 6 0
BBX 6 12 0 -2
BITMAP
00
00
00
00
70
08
78
88
88
78
00
00
ENDCHAR
STARTCHAR b
ENCODING 98
SWIDTH 500 0
DWIDTH 6 0
BBX 6 12 0 -2
BITMAP
00
00
80
80
F0
88
88
88
88
F0
00
00
ENDCHAR
STARTCHAR c
ENCODING 99
SWIDTH 500 0
DWIDTH 6 0
BBX 6 12 0 -2
BITMAP
00
00
00
00
70
88
80
80
88
70
00
00
ENDCHAR
STARTCHAR d
ENCODING 100
SWIDTH 500 0
DWIDTH 6 0
BBX 6 12 0 -2
BITMAP
00
00
08
08
78
88
88
88
88
78
00
00
ENDCHAR
STARTCHAR e
ENCODING 101
SWIDTH 500 0
DWIDTH 6 0
BBX 6 12 0 -2
BITMAP
00
00
00
00
70
88
F8
80
88
70
00
00
ENDCHAR
STARTCHAR f
ENCODING 102
SWIDTH 500 0
DWIDTH 6 0
BBX 6 12 0 -2
BITMAP
00
00
18
20
70
20
20
20
20
20
00
00
ENDCHAR
STARTCHAR g
ENCODING 103
SWIDTH 500 0
DWIDTH 6 0
BBX 6 12 0 -2
BITMAP
00
00
00
00
78
88
88
88
88
78
08
70
ENDCHAR
STARTCHAR h
ENCODING 104
SWIDTH 500 0
DWIDTH 6 0
BBX 6 12 0 -2
BITMAP
00
00
80
80
F0
88
88
88
88
88
00
00
ENDCHAR
STARTCHAR i
ENCODING 105
SWIDTH 500 0
DWIDTH 6 0
BBX 6 12 0 -2
BITMAP
00
20
20
00
60
20
20
20
20
70
00
00
ENDCHAR
STARTCHAR j
ENCODING 106
SWIDTH 500 0
DWIDTH 6 0
BBX 6 12 0 -2
BITMAP
00
08
08
00
18
08
08
08
08
08
48
30
ENDCHAR
STARTCHAR k
ENCODING 107
SWIDTH 500 0
DWIDTH 6 0
BBX 6 12 0 -2
BITMAP
00
00
40
40
48
50
60
60
50
48
00
00
ENDCHAR
STARTCHAR l
ENCODING 108
SWIDTH 500 0
DWIDTH 6 0
BBX 6 12 0 -2
BITMAP
00
00
60
20
20
20
20
20
20
70
00
00
ENDCHAR
STARTCHAR m
ENCODING 109
SWIDTH 500 0
DWIDTH 6 0
BBX 6 12 0 -2
BITMAP
00
00
00
00
F0
A8
A8
A8
A8
A8
00
00
ENDCHAR
STARTCHAR n
ENCODING 110
SWIDTH 500 0
DWIDTH 6 0
BBX 6 12 0 -2
BITMAP
00
00
00
00
F0
88
88
88
88
88
00
00
ENDCHAR
STARTCHAR o
ENCODING 111
SWIDTH 500 0
DWIDTH 6 0
BBX 6 12 0 -2
BITMAP
00
00
00
00
70
88
88
88
88
70
00
00
ENDCHAR
STARTCHAR p
ENCODING 112
SWIDTH 500 0
DWIDTH 6 0
BBX 6 12 0 -2
BITMAP
00
00
00
00
F0
88
88
88
88
F0
80
80
ENDCHAR
STARTCHAR q
ENCODING 113
SWIDTH 500 0
DWIDTH 6 0
BBX 6 12 0 -2
BITMAP
00
00
00
00
78
88
88
88
88
78
08
08
ENDCHAR
STARTCHAR r
ENCODING 114
SWIDTH 500 0
DWIDTH 6 0
BBX 6 12 0 -2
BITMAP
00
00
00
00
B8
C0
80
80
80
80
00
00
ENDCHAR
STARTCHAR s
ENCODING 115
SWIDTH 500 0
DWIDTH 6 0
BBX 6 12 0 -2
BITMAP
00
00
00
00
78
80
70
08
08
F0
00
00
ENDCHAR
STARTCHAR t
ENCODING 116
SWIDTH 500 0
DWIDTH 6 0
BBX 6 12 0 -2
BITMAP
00
00
20
20
70
20
20
20
20
18
00
00
ENDCHAR
STARTCHAR u
ENCODING 117
SWIDTH 500 0
DWIDTH 6 0
BBX 6 12 0 -2
BITMAP
00
00
00
00
88
88
88
88
88
78
00
00
ENDCHAR
STARTCHAR v
ENCODING 118
SWIDTH 500 0
DWIDTH 6 0
BBX 6 12 0 -2
BITMAP
00
00
00
00
88
88
50
50
20
20
00
00
ENDCHAR
STARTCHAR w
ENCODING 119
SWIDTH 500 0
DWIDTH 6 0
BBX 6 12 0 -2
BITMAP
00
00
00
00
88
88
A8
A8
A8
70
00
00
ENDCHAR
STARTCHAR x
ENCODING 120
SWIDTH 500 0
DWIDTH 6 0
BBX 6 12 0 -2
BITMAP
00
00
00
00
88
50
20
20
50
88
00
00
ENDCHAR
STARTCHAR y
ENCODING 121
SWIDTH 500 0
DWIDTH 6 0
BBX 6 12 0 -2
BITMAP
00
00
00
00
88
88
88
88
88
78
08
70
ENDCHAR
STARTCHAR z
ENCODING 122
SWIDTH 500 0
DWIDTH 6 0
BBX 6 12 0 -2
BITMAP
00
00
00
00
F8
10
20
40
80
F8
00
00
ENDCHAR
STARTCHAR braceleft
ENCODING 123
SWIDTH 500 0
DWIDTH 6 0
BBX 6 12 0 -2
BITMAP
00
00
18
20
20
40
20
20
20
18
00
00
ENDCHAR
STARTCHAR bar
ENCODING 124
SWIDTH 500 0
DWIDTH 6 0
BBX 6 12 0 -2
BITMAP
00
00
20
20
20
20
20
20
20
20
00
00
ENDCHAR
STARTCHAR braceright
ENCODING 125
SWIDTH 500 0
DWIDTH 6 0
BBX 6 12 0 -2
BITMAP
00
00
60
10
10
08
10
10
10
60
00
00
ENDCHAR
STARTCHAR asciitilde
ENCODING 126
SWIDTH 500 0
DWIDTH 6 0
BBX 6 12 0 -2
BITMAP
00
48
A8
90
00
00
00
00
00
00
00
00
ENDCHAR
STARTCHAR nbspace
ENCODING 160
SWIDTH 500 0
DWIDTH 6 0
BBX 6 12 0 -2
BITMAP
00
00
00
00
00
00
00
00
00
00
00
00
ENDCHAR
STARTCHAR exclamdown
ENCODING 161
SWIDTH 500 0
DWIDTH 6 0
BBX 6 12 0 -2
BITMAP
00
00
20
20
00
20
20
20
20
20
00
00
ENDCHAR
STARTCHAR cent
ENCODING 162
SWIDTH 500 0
DWIDTH 6 0
BBX 6 12 0 -2
BITMAP
00
00
00
20
70
A8
A0
A0
A8
70
20
00
ENDCHAR
STARTCHAR sterling
ENCODING 163
SWIDTH 500 0
DWIDTH 6 0
BBX 6 12 0 -2
BITMAP
00
00
30
48
40
F0
40
40
48
F8
00
00
ENDCHAR
STARTCHAR currency
ENCODING 164
SWIDTH 500 0
DWIDTH 6 0
BBX 6 12 0 -2
BITMAP
00
00
00
48
30
48
48
30
48
00
00
00
ENDCHAR
STARTCHAR yen
ENCODING 165
SWIDTH 500 0
DWIDTH 6 0
BBX 6 12 0 -2
BITMAP
00
00
88
88
50
20
70
20
70
20
00
00
ENDCHAR
STARTCHAR brokenbar
ENCODING 166
SWIDTH 500 0
DWIDTH 6 0
BBX 6 12 0 -2
BITMAP
00
00
20
20
20
00
00
20
20
20
00
00
ENDCHAR
STARTCHAR section
ENCODING 167
SWIDTH 500 0
DWIDTH 6 0
BBX 6 12 0 -2
BITMAP
00
30
48
20
50
48
28
10
48
30
00
00
ENDCHAR
STARTCHAR dieresis
ENCODING 168
SWIDTH 500 0
DWIDTH 6 0
BBX 6 12 0 -2
BITMAP
50
50
00
00
00
00
00
00
00
00
00
00
ENDCHAR
STARTCHAR copyright
ENCODING 169
SWIDTH 500 0
DWIDTH 6 0
BBX 6 12 0 -2
BITMAP
00
00
78
84
B4
A4
A4
B4
84
78
00
00
ENDCHAR
STARTCHAR ordfeminine
ENCODING 170
SWIDTH 500 0
DWIDTH 6 0
BBX 6 12 0 -2
BITMAP
30
08
38
48
38
00
78
00
00
00
00
00
ENDCHAR
STARTCHAR guillemotleft
ENCODING 171
SWIDTH 500 0
DWIDTH 6 0
BBX 6 12 0 -2
BITMAP
00
00
00
14
28
50
A0
50
28
14
00
00
ENDCHAR
STARTCHAR logicalnot
ENCODING 172
SWIDTH 500 0
DWIDTH 6 0
BBX 6 12 0 -2
BITMAP
00
00
00
00
F8
08
08
08
00
00
00
00
ENDCHAR
STARTCHAR softhyphen
ENCODING 173
SWIDTH 500 0
DWIDTH 6 0
BBX 6 12 0 -2
BITMAP
00
00
00
00
00
00
78
00
00
00
00
00
ENDCHAR
STARTCHAR registered
ENCODING 174
SWIDTH 500 0
DWIDTH 6 0
BBX 6 12 0 -2
BITMAP
00
00
78
84
B4
AC
B4
AC
84
78
00
00
ENDCHAR
STARTCHAR macron
ENCODING 175
SWIDTH 500 0
DWIDTH 6 0
BBX 6 12 0 -2
BITMAP
70
00
00
00
00
00
00
00
00
00
00
00
ENDCHAR
STARTCHAR degree
ENCODING 176
SWIDTH 500 0
DWIDTH 6 0
BBX 6 12 0 -2
BITMAP
00
20
50
20
00
00
00
00
00
00
00
00
ENDCHAR
STARTCHAR plusminus
ENCODING 177
SWIDTH 500 0
DWIDTH 6 0
BBX 6 12 0 -2
BITMAP
00
00
00
20
20
F8
20
20
00
F8
00
00
ENDCHAR
STARTCHAR twosuperior
ENCODING 178
SWIDTH 500 0
DWIDTH 6 0
BBX 6 12 0 -2
BITMAP
00
30
48
10
20
78
00
00
00
00
00
00
ENDCHAR
STARTCHAR threesuperior
ENCODING 179
SWIDTH 500 0
DWIDTH 6 0
BBX 6 12 0 -2
BITMAP
00
70
08
30
08
70
00
00
00
00
00
00
ENDCHAR
STARTCHAR acute
ENCODING 180
SWIDTH 500 0
DWIDTH 6 0
BBX 6 12 0 -2
BITMAP
10
20
00
00
00
00
00
00
00
00
00
00
ENDCHAR
STARTCHAR paragraph
ENCODING 182
SWIDTH 500 0
DWIDTH 6 0
BBX 6 12 0 -2
BITMAP
00
00
78
A8
A8
A8
68
28
28
28
00
00
ENDCHAR
STARTCHAR periodcentered
ENCODING 183
SWIDTH 500 0
DWIDTH 6 0
BBX 6 12 0 -2
BITMAP
00
00
00
00
00
20
20
00
00
00
00
00
ENDCHAR
STARTCHAR cedilla
ENCODING 184
SWIDTH 500 0
DWIDTH 6 0
BBX 6 12 0 -2
BITMAP
00
00
00
00
00
00
00
00
00
20
20
40
ENDCHAR
STARTCHAR onesuperior
ENCODING 185
SWIDTH 500 0
DWIDTH 6 0
BBX 6 12 0 -2
BITMAP
00
20
60
20
20
00
00
00
00
00
00
00
ENDCHAR
STARTCHAR ordmasculine
ENCODING 186
SWIDTH 500 0
DWIDTH 6 0
BBX 6 12 0 -2
BITMAP
30
48
48
48
30
00
78
00
00
00
00
00
ENDCHAR
STARTCHAR guillemotright
ENCODING 187
SWIDTH 500 0
DWIDTH 6 0
BBX 6 12 0 -2
BITMAP
00
00
00
A0
50
28
14
28
50
A0
00
00
ENDCHAR
STARTCHAR onequarter
ENCODING 188
SWIDTH 500 0
DWIDTH 6 0
BBX 6 12 0 -2
BITMAP
40
C0
40
48
10
20
48
98
28
78
08
08
ENDCHAR
STARTCHAR onehalf
ENCODING 189
SWIDTH 500 0
DWIDTH 6 0
BBX 6 12 0 -2
BITMAP
40
C0
44
48
10
20
40
98
24
08
10
3C
ENDCHAR
STARTCHAR threequarters
ENCODING 190
SWIDTH 500 0
DWIDTH 6 0
BBX 6 12 0 -2
BITMAP
C0
20
C0
24
C8
10
24
4C
94
3C
04
04
ENDCHAR
STARTCHAR questiondown
ENCODING 191
SWIDTH 500 0
DWIDTH 6 0
BBX 6 12 0 -2
BITMAP
00
00
20
20
00
20
40
88
88
70
00
00
ENDCHAR
STARTCHAR Agrave
ENCODING 192
SWIDTH 500 0
DWIDTH 6 0
BBX 6 12 0 -2
BITMAP
40
20
70
88
88
88
F8
88
88
88
00
00
ENDCHAR
STARTCHAR Aacute
ENCODING 193
SWIDTH 500 0
DWIDTH 6 0
BBX 6 12 0 -2
BITMAP
10
20
70
88
88
88
F8
88
88
88
00
00
ENDCHAR
STARTCHAR Acircumflex
ENCODING 194
SWIDTH 500 0
DWIDTH 6 0
BBX 6 12 0 -2
BITMAP
20
50
70
88
88
88
F8
88
88
88
00
00
ENDCHAR
STARTCHAR Atilde
ENCODING 195
SWIDTH 500 0
DWIDTH 6 0
BBX 6 12 0 -2
BITMAP
28
50
70
88
88
88
F8
88
88
88
00
00
ENDCHAR
STARTCHAR Adieresis
ENCODING 196
SWIDTH 500 0
DWIDTH 6 0
BBX 6 12 0 -2
BITMAP
50
50
70
88
88
88
F8
88
88
88
00
00
ENDCHAR
STARTCHAR Aring
ENCODING 197
SWIDTH 500 0
DWIDTH 6 0
BBX 6 12 0 -2
BITMAP
20
50
70
88
88
88
F8
88
88
88
00
00
ENDCHAR
STARTCHAR AE
ENCODING 198
SWIDTH 500 0
DWIDTH 6 0
BBX 6 12 0 -2
BITMAP
00
00
7C
90
90
FC
90
90
90
9C
00
00
ENDCHAR
STARTCHAR Ccedilla
ENCODING 199
SWIDTH 500 0
DWIDTH 6 0
BBX 6 12 0 -2
BITMAP
00
00
70
88
80
80
80
80
88
70
20
40
ENDCHAR
STARTCHAR Egrave
ENCODING 200
SWIDTH 500 0
DWIDTH 6 0
BBX 6 12 0 -2
BITMAP
40
20
F8
80
80
F0
80
80
80
F8
00
00
ENDCHAR
STARTCHAR Eacute
ENCODING 201
SWIDTH 500 0
DWIDTH 6 0
BBX 6 12 0 -2
BITMAP
10
20
F8
80
80
F0
80
80
80
F8
00
00
ENDCHAR
STARTCHAR Ecircumflex
ENCODING 202
SWIDTH 500 0
DWIDTH 6 0
BBX 6 12 0 -2
BITMAP
20
50
F8
80
80
F0
80
80
80
F8
00
00
ENDCHAR
STARTCHAR Edieresis
ENCODING 203
SWIDTH 500 0
DWIDTH 6 0
BBX 6 12 0 -2
BITMAP
50
50
F8
80
80
F0
80
80
80
F8
00
00
ENDCHAR
STARTCHAR Igrave
ENCODING 204
SWIDTH 500 0
DWIDTH 6 0
BBX 6 12 0 -2
BITMAP
40
20
70
20
20
20
20
20
20
70
00
00
ENDCHAR
STARTCHAR Iacute
ENCODING 205
SWIDTH 500 0
DWIDTH 6 0
BBX 6 12 0 -2
BITMAP
10
20
70
20
20
20
20
20
20
70
00
00
ENDCHAR
STARTCHAR Icircumflex
ENCODING 206
SWIDTH 500 0
DWIDTH 6 0
BBX 6 12 0 -2
BITMAP
20
50
70
20
20
20
20
20
20
70
00
00
ENDCHAR
STARTCHAR Idieresis
ENCODING 207
SWIDTH 500 0
DWIDTH 6 0
BBX 6 12 0 -2
BITMAP
50
50
70
20
20
20
20
20
20
70
00
00
ENDCHAR
STARTCHAR Eth
ENCODING 208
SWIDTH 500 0
DWIDTH 6 0
BBX 6 12 0 -2
BITMAP
00
00
E0
90
88
E8
88
88
90
E0
00
00
ENDCHAR
STARTCHAR Ntilde
ENCODING 209
SWIDTH 500 0
DWIDTH 6 0
BBX 6 12 0 -2
BITMAP
28
50
88
88
C8
A8
98
88
88
88
00
00
ENDCHAR
STARTCHAR Ograve
ENCODING 210
SWIDTH 500 0
DWIDTH 6 0
BBX 6 12 0 -2
BITMAP
40
20
70
88
88
88
88
88
88
70
00
00
ENDCHAR
STARTCHAR Oacute
ENCODING 211
SWIDTH 500 0
DWIDTH 6 0
BBX 6 12 0 -2
BITMAP
10
20
70
88
88
88
88
88
88
70
00
00
ENDCHAR
STARTCHAR Ocircumflex
ENCODING 212
SWIDTH 500 0
DWIDTH 6 0
BBX 6 12 0 -2
BITMAP
20
50
70
88
88
88
88
88
88
70
00
00
ENDCHAR
STARTCHAR Otilde
ENCODING 213
SWIDTH 500 0
DWIDTH 6 0
BBX 6 12 0 -2
BITMAP
28
50
70
88
88
88
88
88
88
70
00
00
ENDCHAR
STARTCHAR Odieresis
ENCODING 214
SWIDTH 500 0
DWIDTH 6 0
BBX 6 12 0 -2
BITMAP
50
50
70
88
88
88
88
88
88
70
00
00
ENDCHAR
STARTCHAR multiply
ENCODING 215
SWIDTH 500 0
DWIDTH 6 0
BBX 6 12 0 -2
BITMAP
00
00
00
00
88
50
20
50
88
00
00
00
ENDCHAR
STARTCHAR Oslash
ENCODING 216
SWIDTH 500 0
DWIDTH 6 0
BBX 6 12 0 -2
BITMAP
00
00
74
88
98
A8
C8
88
88
70
00
00
ENDCHAR
STARTCHAR Ugrave
ENCODING 217
SWIDTH 500 0
DWIDTH 6 0
BBX 6 12 0 -2
BITMAP
40
20
88
88
88
88
88
88
88
70
00
00
ENDCHAR
STARTCHAR Uacute
ENCODING 218
SWIDTH 500 0
DWIDTH 6 0
BBX 6 12 0 -2
BITMAP
10
20
88
88
88
88
88
88
88
70
00
00
ENDCHAR
STARTCHAR Ucircumflex
ENCODING 219
SWIDTH 500 0
DWIDTH 6 0
BBX 6 12 0 -2
BITMAP
20
50
88
88
88
88
88
88
88
70
00
00
ENDCHAR
STARTCHAR Udieresis
ENCODING 220
SWIDTH 500 0
DWIDTH 6 0
BBX 6 12 0 -2
BITMAP
50
50
88
88
88
88
88
88
88
70
00
00
ENDCHAR
STARTCHAR Yacute
ENCODING 221
SWIDTH 500 0
DWIDTH 6 0
BBX 6 12 0 -2
BITMAP
10
20
88
88
50
50
20
20
20
20
00
00
ENDCHAR
STARTCHAR Thorn
ENCODING 222
SWIDTH 500 0
DWIDTH 6 0
BBX 6 12 0 -2
BITMAP
00
00
80
F0
88
88
88
F0
80
80
00
00
ENDCHAR
STARTCHAR germandbls
ENCODING 223
SWIDTH 500 0
DWIDTH 6 0
BBX 6 12 0 -2
BITMAP
00
00
E0
90
90
F0
88
88
C8
B0
00
00
ENDCHAR
STARTCHAR agrave
ENCODING 224
SWIDTH 500 0
DWIDTH 6 0
BBX 6 12 0 -2
BITMAP
00
00
40
20
70
08
78
88
88
78
00
00
ENDCHAR
STARTCHAR aacute
ENCODING 225
SWIDTH 500 0
DWIDTH 6 0
BBX 6 12 0 -2
BITMAP
00
00
10
20
70
08
78
88
88
78
00
00
ENDCHAR
STARTCHAR acircumflex
ENCODING 226
SWIDTH 500 0
DWIDTH 6 0
BBX 6 12 0 -2
BITMAP
00
00
20
50
70
08
78
88
88
78
00
00
ENDCHAR
STARTCHAR atilde
ENCODING 227
SWIDTH 500 0
DWIDTH 6 0
BBX 6 12 0 -2
BITMAP
00
00
28
50
70
08
78
88
88
78
00
00
ENDCHAR
STARTCHAR adieresis
ENCODING 228
SWIDTH 500 0
DWIDTH 6 0
BBX 6 12 0 -2
BITMAP
00
00
50
50
70
08
78
88
88
78
00
00
ENDCHAR
STARTCHAR aring
ENCODING 229
SWIDTH 500 0
DWIDTH 6 0
BBX 6 12 0 -2
BITMAP
00
00
20
50
70
08
78
88
88
78
00
00
ENDCHAR
STARTCHAR ae
ENCODING 230
SWIDTH 500 0
DWIDTH 6 0
BBX 6 12 0 -2
BITMAP
00
00
00
00
70
28
68
B0
A0
78
00
00
ENDCHAR
STARTCHAR ccedilla
ENCODING 231
SWIDTH 500 0
DWIDTH 6 0
BBX 6 12 0 -2
BITMAP
00
00
00
00
70
88
80
80
88
70
20
40
ENDCHAR
STARTCHAR egrave
ENCODING 232
SWIDTH 500 0
DWIDTH 6 0
BBX 6 12 0 -2
BITMAP
00
00
40
20
70
88
F8
80
88
70
00
00
ENDCHAR
STARTCHAR eacute
ENCODING 233
SWIDTH 500 0
DWIDTH 6 0
BBX 6 12 0 -2
BITMAP
00
00
10
20
70
88
F8
80
88
70
00
00
ENDCHAR
STARTCHAR ecircumflex
ENCODING 234
SWIDTH 500 0
DWIDTH 6 0
BBX 6 12 0 -2
BITMAP
00
00
20
50
70
88
F8
80
88
70
00
00
ENDCHAR
STARTCHAR edieresis
ENCODING 235
SWIDTH 500 0
DWIDTH 6 0
BBX 6 12 0 -2
BITMAP
00
00
50
50
70
88
F8
80
88
70
00
00
ENDCHAR
STARTCHAR igrave
ENCODING 236
SWIDTH 500 0
DWIDTH 6 0
BBX 6 12 0 -2
BITMAP
00
00
40
20
60
20
20
20
20
70
00
00
ENDCHAR
STARTCHAR iacute
ENCODING 237
SWIDTH 500 0
DWIDTH 6 0
BBX 6 12 0 -2
BITMAP
00
00
10
20
60
20
20
20
20
70
00
00
ENDCHAR
STARTCHAR icircumflex
ENCODING 238
SWIDTH 500 0
DWIDTH 6 0
BBX 6 12 0 -2
BITMAP
00
00
20
50
60
20
20
20
20
70
00
00
ENDCHAR
STARTCHAR idieresis
ENCODING 239
SWIDTH 500 0
DWIDTH 6 0
BBX 6 12 0 -2
BITMAP
00
00
50
50
60
20
20
20
20
70
00
00
ENDCHAR
STARTCHAR eth
ENCODING 240
SWIDTH 500 0
DWIDTH 6 0
BBX 6 12 0 -2
BITMAP
00
A0
40
A0
70
88
88
88
88
70
00
00
ENDCHAR
STARTCHAR ntilde
ENCODING 241
SWIDTH 500 0
DWIDTH 6 0
BBX 6 12 0 -2
BITMAP
00
00
28
50
F0
88
88
88
88
88
00
00
ENDCHAR
STARTCHAR ograve
ENCODING 242
SWIDTH 500 0
DWIDTH 6 0
BBX 6 12 0 -2
BITMAP
00
00
40
20
70
88
88
88
88
70
00
00
ENDCHAR
STARTCHAR oacute
ENCODING 243
SWIDTH 500 0
DWIDTH 6 0
BBX 6 12 0 -2
BITMAP
00
00
10
20
70
88
88
88
88
70
00
00
ENDCHAR
STARTCHAR ocircumflex
ENCODING 244
SWIDTH 500 0
DWIDTH 6 0
BBX 6 12 0 -2
BITMAP
00
00
20
50
70
88
88
88
88
70
00
00
ENDCHAR
STARTCHAR otilde
ENCODING 245
SWIDTH 500 0
DWIDTH 6 0
BBX 6 12 0 -2
BITMAP
00
00
28
50
70
88
88
88
88
70
00
00
ENDCHAR
STARTCHAR odieresis
ENCODING 246
SWIDTH 500 0
DWIDTH 6 0
BBX 6 12 0 -2
BITMAP
00
00
50
50
70
88
88
88
88
70
00
00
ENDCHAR
STARTCHAR divide
ENCODING 247
SWIDTH 500 0
DWIDTH 6 0
BBX 6 12 0 -2
BITMAP
00
00
00
20
20
00
F8
00
20
20
00
00
ENDCHAR
STARTCHAR oslash
ENCODING 248
SWIDTH 500 0
DWIDTH 6 0
BBX 6 12 0 -2
BITMAP
00
00
00
00
34
48
58
68
48
B0
00
00
ENDCHAR
STARTCHAR ugrave
ENCODING 249
SWIDTH 500 0
DWIDTH 6 0
BBX 6 12 0 -2
BITMAP
00
00
40
20
88
88
88
88
88
78
00
00
ENDCHAR
STARTCHAR uacute
ENCODING 250
SWIDTH 500 0
DWIDTH 6 0
BBX 6 12 0 -2
BITMAP
00
00
10
20
88
88
88
88
88
78
00
00
ENDCHAR
STARTCHAR ucircumflex
ENCODING 251
SWIDTH 500 0
DWIDTH 6 0
BBX 6 12 0 -2
BITMAP
00
00
20
50
88
88
88
88
88
78
00
00
ENDCHAR
STARTCHAR udieresis
ENCODING 252
SWIDTH 500 0
DWIDTH 6 0
BBX 6 12 0 -2
BITMAP
00
00
50
50
88
88
88
88
88
78
00
00
ENDCHAR
STARTCHAR yacute
ENCODING 253
SWIDTH 500 0
DWIDTH 6 0
BBX 6 12 0 -2
BITMAP
00
00
10
20
88
88
88
88
88
78
08
70
ENDCHAR
STARTCHAR thorn
ENCODING 254
SWIDTH 500 0
DWIDTH 6 0
BBX 6 12 0 -2
BITMAP
00
00
80
80
F0
88
88
88
88
F0
80
80
ENDCHAR
STARTCHAR ydieresis
ENCODING 255
SWIDTH 500 0
DWIDTH 6 0
BBX 6 12 0 -2
BITMAP
00
00
50
50
88
88
88
88
88
78
08
70
ENDCHAR
STARTCHAR OE
ENCODING 338
SWIDTH 500 0
DWIDTH 6 0
BBX 6 12 0 -2
BITMAP
00
00
7C
90
90
9C
90
90
90
7C
00
00
ENDCHAR
STARTCHAR oe
ENCODING 339
SWIDTH 500 0
DWIDTH 6 0
BBX 6 12 0 -2
BITMAP
00
00
00
00
70
A8
A8
B0
A0
78
00
00
ENDCHAR
STARTCHAR Scaron
ENCODING 352
SWIDTH 500 0
DWIDTH 6 0
BBX 6 12 0 -2
BITMAP
50
20
70
88
80
70
08
08
88
70
00
00
ENDCHAR
STARTCHAR scaron
ENCODING 353
SWIDTH 500 0
DWIDTH 6 0
BBX 6 12 0 -2
BITMAP
00
00
50
20
78
80
70
08
08
F0
00
00
ENDCHAR
STARTCHAR Ydieresis
ENCODING 376
SWIDTH 500 0
DWIDTH 6 0
BBX 6 12 0 -2
BITMAP
50
50
88
88
50
50
20
20
20
20
00
00
ENDCHAR
STARTCHAR Zcaron
ENCODING 381
SWIDTH 500 0
DWIDTH 6 0
BBX 6 12 0 -2
BITMAP
50
20
F8
08
10
20
40
80
80
F8
00
00
ENDCHAR
STARTCHAR zcaron
ENCODING 382
SWIDTH 500 0
DWIDTH 6 0
BBX 6 12 0 -2
BITMAP
00
00
50
20
F8
10
20
40
80
F8
00
00
ENDCHAR
STARTCHAR florin
ENCODING 402
SWIDTH 500 0
DWIDTH 6 0
BBX 6 12 0 -2
BITMAP
00
00
10
28
20
70
20
20
20
20
A0
40
ENDCHAR
STARTCHAR circumflex
ENCODING 710
SWIDTH 500 0
DWIDTH 6 0
BBX 6 12 0 -2
BITMAP
20
50
00
00
00
00
00
00
00
00
00
00
ENDCHAR
STARTCHAR tilde
ENCODING 732
SWIDTH 500 0
DWIDTH 6 0
BBX 6 12 0 -2
BITMAP
28
50
00
00
00
00
00
00
00
00
00
00
ENDCHAR
STARTCHAR mu
ENCODING 956
SWIDTH 500 0
DWIDTH 6 0
BBX 6 12 0 -2
BITMAP
00
00
00
00
88
88
88
88
98
E8
80
80
ENDCHAR
STARTCHAR pi
ENCODING 960
SWIDTH 500 0
DWIDTH 6 0
BBX 6 12 0 -2
BITMAP
00
00
00
00
F8
88
88
88
88
88
00
00
ENDCHAR
STARTCHAR endash
ENCODING 8211
SWIDTH 500 0
DWIDTH 6 0
BBX 6 12 0 -2
BITMAP
00
00
00
00
00
00
F8
00
00
00
00
00
ENDCHAR
STARTCHAR emdash
ENCODING 8212
SWIDTH 500 0
DWIDTH 6 0
BBX 6 12 0 -2
BITMAP
00
00
00
00
00
00
F8
00
00
00
00
00
ENDCHAR
STARTCHAR quoteleft
ENCODING 8216
SWIDTH 500 0
DWIDTH 6 0
BBX 6 12 0 -2
BITMAP
00
10
20
20
00
00
00
00
00
00
00
00
ENDCHAR
STARTCHAR quoteright
ENCODING 8217
SWIDTH 500 0
DWIDTH 6 0
BBX 6 12 0 -2
BITMAP
00
20
20
40
00
00
00
00
00
00
00
00
ENDCHAR
STARTCHAR quotesinglbase
ENCODING 8218
SWIDTH 500 0
DWIDTH 6 0
BBX 6 12 0 -2
BITMAP
00
00
00
00
00
00
00
00
20
20
40
00
ENDCHAR
STARTCHAR quotedblleft
ENCODING 8220
SWIDTH 500 0
DWIDTH 6 0
BBX 6 12 0 -2
BITMAP
00
28
50
50
00
00
00
00
00
00
00
00
ENDCHAR
STARTCHAR quotedblright
ENCODING 8221
SWIDTH 500 0
DWIDTH 6 0
BBX 6 12 0 -2
BITMAP
00
28
28
50
00
00
00
00
00
00
00
00
ENDCHAR
STARTCHAR quotedblbase
ENCODING 8222
SWIDTH 500 0
DWIDTH 6 0
BBX 6 12 0 -2
BITMAP
00
00
00
00
00
00
00
00
50
50
A0
00
ENDCHAR
STARTCHAR dagger
ENCODING 8224
SWIDTH 500 0
DWIDTH 6 0
BBX 6 12 0 -2
BITMAP
00
00
20
70
20
20
20
20
20
20
00
00
ENDCHAR
STARTCHAR daggerdbl
ENCODING 8225
SWIDTH 500 0
DWIDTH 6 0
BBX 6 12 0 -2
BITMAP
00
00
20
70
20
20
20
20
70
20
00
00
ENDCHAR
STARTCHAR bullet
ENCODING 8226
SWIDTH 500 0
DWIDTH 6 0
BBX 6 12 0 -2
BITMAP
00
00
00
00
30
78
78
30
00
00
00
00
ENDCHAR
STARTCHAR ellipsis
ENCODING 8230
SWIDTH 500 0
DWIDTH 6 0
BBX 6 12 0 -2
BITMAP
00
00
00
00
00
00
00
00
A8
A8
00
00
ENDCHAR
STARTCHAR perthousand
ENCODING 8240
SWIDTH 500 0
DWIDTH 6 0
BBX 6 12 0 -2
BITMAP
00
00
44
A8
50
20
40
A8
54
28
00
00
ENDCHAR
STARTCHAR guilsinglleft
ENCODING 8249
SWIDTH 500 0
DWIDTH 6 0
BBX 6 12 0 -2
BITMAP
00
00
00
08
10
20
40
20
10
08
00
00
ENDCHAR
STARTCHAR guilsinglright
ENCODING 8250
SWIDTH 500 0
DWIDTH 6 0
BBX 6 12 0 -2
BITMAP
00
00
00
40
20
10
08
10
20
40
00
00
ENDCHAR
STARTCHAR Euro
ENCODING 8364
SWIDTH 500 0
DWIDTH 6 0
BBX 6 12 0 -2
BITMAP
00
00
00
38
44
F0
40
F0
44
38
00
00
ENDCHAR
STARTCHAR trademark
ENCODING 8482
SWIDTH 500 0
DWIDTH 6 0
BBX 6 12 0 -2
BITMAP
00
00
F4
5C
54
54
00
00
00
00
00
00
ENDCHAR
STARTCHAR notequal
ENCODING 8800
SWIDTH 500 0
DWIDTH 6 0
BBX 6 12 0 -2
BITMAP
00
00
00
08
F8
20
40
F8
80
00
00
00
ENDCHAR
STARTCHAR lessequal
ENCODING 8804
SWIDTH 500 0
DWIDTH 6 0
BBX 6 12 0 -2
BITMAP
00
10
20
40
80
40
20
10
00
F8
00
00
ENDCHAR
STARTCHAR greaterequal
ENCODING 8805
SWIDTH 500 0
DWIDTH 6 0
BBX 6 12 0 -2
BITMAP
00
40
20
10
08
10
20
40
00
F8
00
00
ENDCHAR
STARTCHAR house
ENCODING 8962
SWIDTH 500 0
DWIDTH 6 0
BBX 6 12 0 -2
BITMAP
00
00
00
00
20
50
88
88
88
F8
00
00
ENDCHAR
STARTCHAR uni23BA
ENCODING 9146
SWIDTH 500 0
DWIDTH 6 0
BBX 6 12 0 -2
BITMAP
FC
00
00
00
00
00
00
00
00
00
00
00
ENDCHAR
STARTCHAR uni23BB
ENCODING 9147
SWIDTH 500 0
DWIDTH 6 0
BBX 6 12 0 -2
BITMAP
00
00
00
FC
00
00
00
00
00
00
00
00
ENDCHAR
STARTCHAR uni23BC
ENCODING 9148
SWIDTH 500 0
DWIDTH 6 0
BBX 6 12 0 -2
BITMAP
00
00
00
00
00
00
00
00
FC
00
00
00
ENDCHAR
STARTCHAR uni23BD
ENCODING 9149
SWIDTH 500 0
DWIDTH 6 0
BBX 6 12 0 -2
BITMAP
00
00
00
00
00
00
00
00
00
00
00
FC
ENDCHAR
STARTCHAR uni2409
ENCODING 9225
SWIDTH 500 0
DWIDTH 6 0
BBX 6 12 0 -2
BITMAP
90
90
F0
90
90
00
7C
10
10
10
10
00
ENDCHAR
STARTCHAR uni240A
ENCODING 9226
SWIDTH 500 0
DWIDTH 6 0
BBX 6 12 0 -2
BITMAP
80
80
80
80
F0
00
3C
20
38
20
20
00
ENDCHAR
STARTCHAR uni240B
ENCODING 9227
SWIDTH 500 0
DWIDTH 6 0
BBX 6 12 0 -2
BITMAP
88
88
88
50
20
00
7C
10
10
10
10
00
ENDCHAR
STARTCHAR uni240C
ENCODING 9228
SWIDTH 500 0
DWIDTH 6 0
BBX 6 12 0 -2
BITMAP
F0
80
E0
80
80
00
3C
20
38
20
20
00
ENDCHAR
STARTCHAR uni240D
ENCODING 9229
SWIDTH 500 0
DWIDTH 6 0
BBX 6 12 0 -2
BITMAP
60
90
80
90
60
00
38
24
38
28
24
00
ENDCHAR
STARTCHAR uni2424
ENCODING 9252
SWIDTH 500 0
DWIDTH 6 0
BBX 6 12 0 -2
BITMAP
90
D0
B0
90
90
00
20
20
20
20
3C
00
ENDCHAR
STARTCHAR SF100000
ENCODING 9472
SWIDTH 500 0
DWIDTH 6 0
BBX 6 12 0 -2
BITMAP
00
00
00
00
00
FC
00
00
00
00
00
00
ENDCHAR
STARTCHAR SF110000
ENCODING 9474
SWIDTH 500 0
DWIDTH 6 0
BBX 6 12 0 -2
BITMAP
20
20
20
20
20
20
20
20
20
20
20
20
ENDCHAR
STARTCHAR SF010000
ENCODING 9484
SWIDTH 500 0
DWIDTH 6 0
BBX 6 12 0 -2
BITMAP
00
00
00
00
00
3C
20
20
20
20
20
20
ENDCHAR
STARTCHAR SF030000
ENCODING 9488
SWIDTH 500 0
DWIDTH 6 0
BBX 6 12 0 -2
BITMAP
00
00
00
00
00
E0
20
20
20
20
20
20
ENDCHAR
STARTCHAR SF020000
ENCODING 9492
SWIDTH 500 0
DWIDTH 6 0
BBX 6 12 0 -2
BITMAP
20
20
20
20
20
3C
00
00
00
00
00
00
ENDCHAR
STARTCHAR SF040000
ENCODING 9496
SWIDTH 500 0
DWIDTH 6 0
BBX 6 12 0 -2
BITMAP
20
20
20
20
20
E0
00
00
00
00
00
00
ENDCHAR
STARTCHAR SF080000
ENCODING 9500
SWIDTH 500 0
DWIDTH 6 0
BBX 6 12 0 -2
BITMAP
20
20
20
20
20
3C
20
20
20
20
20
20
ENDCHAR
STARTCHAR SF090000
ENCODING 9508
SWIDTH 500 0
DWIDTH 6 0
BBX 6 12 0 -2
BITMAP
20
20
20
20
20
E0
20
20
20
20
20
20
ENDCHAR
STARTCHAR SF060000
ENCODING 9516
SWIDTH 500 0
DWIDTH 6 0
BBX 6 12 0 -2
BITMAP
00
00
00
00
00
FC
20
20
20
20
20
20
ENDCHAR
STARTCHAR SF070000
ENCODING 9524
SWIDTH 500 0
DWIDTH 6 0
BBX 6 12 0 -2
BITMAP
20
20
20
20
20
FC
00
00
00
00
00
00
ENDCHAR
STARTCHAR SF050000
ENCODING 9532
SWIDTH 500 0
DWIDTH 6 0
BBX 6 12 0 -2
BITMAP
20
20
20
20
20
FC
20
20
20
20
20
20
ENDCHAR
STARTCHAR shade
ENCODING 9618
SWIDTH 500 0
DWIDTH 6 0
BBX 6 12 0 -2
BITMAP
A8
54
A8
54
A8
54
A8
54
A8
54
A8
54
ENDCHAR
STARTCHAR uni25AE
ENCODING 9646
SWIDTH 500 0
DWIDTH 6 0
BBX 6 12 0 -2
BITMAP
00
00
F8
F8
F8
F8
F8
F8
F8
F8
00
00
ENDCHAR
STARTCHAR blackdiamond
ENCODING 9670
SWIDTH 500 0
DWIDTH 6 0
BBX 6 12 0 -2
BITMAP
00
00
00
20
70
F8
70
20
00
00
00
00
ENDCHAR
STARTCHAR uni2B60
ENCODING 11104
SWIDTH 500 0
DWIDTH 6 0
BBX 6 12 0 -2
BITMAP
C0
C0
C8
DC
C8
C8
C8
D0
E0
C0
C0
C0
ENDCHAR
STARTCHAR uni2B61
ENCODING 11105
SWIDTH 500 0
DWIDTH 6 0
BBX 6 12 0 -2
BITMAP
00
80
80
80
F0
00
24
34
2C
24
00
00
ENDCHAR
STARTCHAR uni2B62
ENCODING 11106
SWIDTH 500 0
DWIDTH 6 0
BBX 6 12 0 -2
BITMAP
00
00
3C
40
4C
4C
40
4C
48
30
00
00
ENDCHAR
STARTCHAR uni2B63
ENCODING 11107
SWIDTH 500 0
DWIDTH 6 0
BBX 6 12 0 -2
BITMAP
00
00
F8
04
98
90
90
90
90
60
00
00
ENDCHAR
STARTCHAR uni2B64
ENCODING 11108
SWIDTH 500 0
DWIDTH 6 0
BBX 6 12 0 -2
BITMAP
00
30
48
48
48
FC
CC
CC
FC
78
00
00
ENDCHAR
STARTCHAR uni2B80
ENCODING 11136
SWIDTH 500 0
DWIDTH 6 0
BBX 6 12 0 -2
BITMAP
80
C0
E0
F0
F8
FC
FC
F8
F0
E0
C0
80
ENDCHAR
STARTCHAR uni2B81
ENCODING 11137
SWIDTH 500 0
DWIDTH 6 0
BBX 6 12 0 -2
BITMAP
80
40
20
10
08
04
04
08
10
20
40
80
ENDCHAR
STARTCHAR uni2B82
ENCODING 11138
SWIDTH 500 0
DWIDTH 6 0
BBX 6 12 0 -2
BITMAP
04
0C
1C
3C
7C
FC
FC
7C
3C
1C
0C
04
ENDCHAR
STARTCHAR uni2B83
ENCODING 11139
SWIDTH 500 0
DWIDTH 6 0
BBX 6 12 0 -2
BITMAP
04
08
10
20
40
80
80
40
20
10
08
04
ENDCHAR
ENDFONT
